# xmcd
#
# Track frame offsets: 
#        150
#        18230
#        33802
#        56208
#        73985
#        84821
#        101193
#        127812
#        145325
#        169809
#
# Disc length: 2517 seconds
#
# Revision: 0
# Processed by: cddbd v1.5.1PL0 Copyright (c) Steve Scherf et al.
# Submitted via: ExactAudioCopy v0.95a5
#
DISCID=8309d30a
DTITLE=Muddy Waters - Hoochie Coochie Man - BMG
DYEAR=1900
DGENRE=Blues
TTITLE0=I'm Your Hoochie Coochie Man
TTITLE1=Good Morning Little School Girl
TTITLE2=That's Alright
TTITLE3=Walking Through The Park
TTITLE4=I Want To Be Loved
TTITLE5=The Blues Had A Baby And They Named It Rock And Roll
TTITLE6=Howling Wolf (Live)
TTITLE7=I'm A King Bee
TTITLE8=Sad Sad Day
TTITLE9=Baby Please Don't Go (Live)
EXTD=
EXTT0=
EXTT1=
EXTT2=
EXTT3=
EXTT4=
EXTT5=
EXTT6=
EXTT7=
EXTT8=
EXTT9=
PLAYORDER=
